<?xml version="1.0" encoding="utf-8"?>
<!-- Generator: Adobe Illustrator 14.0.0, SVG Export Plug-In . SVG Version: 6.00 Build 43363)  -->
<!DOCTYPE svg PUBLIC "-//W3C//DTD SVG 1.1//EN" "http://www.w3.org/Graphics/SVG/1.1/DTD/svg11.dtd">
<svg version="1.1" id="Layer_1" xmlns="http://www.w3.org/2000/svg" xmlns:xlink="http://www.w3.org/1999/xlink" x="0px" y="0px"
	 width="64px" height="64px" viewBox="0 0 64 64" enable-background="new 0 0 64 64" xml:space="preserve">
<g id="XMLID_1_">
	<g>
		<polygon fill="#808080" points="2,52.999 2,10.999 11,1.999 53,1.999 62,11 62,53 53,62 11,62 		"/>
	</g>
	<g>
		<line fill="none" stroke="#000000" stroke-width="0.25" x1="62" y1="53" x2="53" y2="62"/>
		<line fill="none" stroke="#000000" stroke-width="0.25" x1="2" y1="52.999" x2="11" y2="62"/>
		<line fill="none" stroke="#000000" stroke-width="0.25" x1="53" y1="1.999" x2="62" y2="11"/>
		<line fill="none" stroke="#000000" stroke-width="0.25" x1="11" y1="1.999" x2="2" y2="10.999"/>
		<line fill="none" stroke="#000000" stroke-width="0.25" x1="62" y1="11" x2="62" y2="53"/>
		<line fill="none" stroke="#000000" stroke-width="0.25" x1="53" y1="62" x2="11" y2="62"/>
		<line fill="none" stroke="#000000" stroke-width="0.25" x1="2" y1="52.999" x2="2" y2="10.999"/>
		<line fill="none" stroke="#000000" stroke-width="0.25" x1="11" y1="1.999" x2="53" y2="1.999"/>
	</g>
</g>
<g id="XMLID_2_">
	<g>
		<polygon fill="#999999" points="5.75,50.375 5.751,13.625 13.626,5.75 50.374,5.75 58.249,13.625 58.248,50.376 50.373,58.251 
			13.625,58.25 		"/>
	</g>
	<g>
	</g>
</g>
<path fill="none" stroke="#000000" d="M53,62"/>
<path fill="none" stroke="#000000" d="M53,62"/>
<path fill="none" stroke="#000000" d="M62,53"/>
<g>
	<g>
		<path d="M60.939,51.939c-3,3-6,6-9,9c-1.369,1.369,0.752,3.49,2.121,2.121c3-3,6-6,9-9C64.43,52.691,62.309,50.57,60.939,51.939
			L60.939,51.939z"/>
	</g>
</g>
<path fill="none" stroke="#000000" d="M11,61.999"/>
<path fill="none" stroke="#000000" d="M2,52.999"/>
<g>
	<g>
		<path d="M0.939,54.06c3,3,6,6,9,9c1.369,1.369,3.49-0.752,2.121-2.121c-3-3-6-6-9-9C1.691,50.569-0.43,52.69,0.939,54.06
			L0.939,54.06z"/>
	</g>
</g>
<path fill="none" stroke="#000000" d="M62,11"/>
<path fill="none" stroke="#000000" d="M53,2"/>
<g>
	<g>
		<path d="M51.939,3.06c3,3,6,6,9,9c1.369,1.369,3.49-0.752,2.121-2.121c-3-3-6-6-9-9C52.691-0.43,50.57,1.691,51.939,3.06
			L51.939,3.06z"/>
	</g>
</g>
<path fill="none" stroke="#000000" d="M2,10.999"/>
<path fill="none" stroke="#000000" d="M11,2"/>
<g>
	<g>
		<path d="M9.94,0.939c-3,3-6,6-9,9c-1.369,1.369,0.752,3.49,2.121,2.121c3-3,6-6,9-9C13.43,1.691,11.309-0.43,9.94,0.939
			L9.94,0.939z"/>
	</g>
</g>
<g>
	<g>
		<path d="M60.5,11c0,14,0,28,0,42c0,1.935,3,1.935,3,0c0-14,0-28,0-42C63.5,9.065,60.5,9.065,60.5,11L60.5,11z"/>
	</g>
</g>
<g>
	<g>
		<path d="M53,60.5c-14,0-28-0.001-42-0.001c-1.935,0-1.935,3,0,3c14,0,28,0.001,42,0.001C54.935,63.5,54.935,60.5,53,60.5L53,60.5z
			"/>
	</g>
</g>
<g>
	<g>
		<path d="M3.5,52.999c0-14,0-28,0-42c0-1.935-3-1.935-3,0c0,14,0,28,0,42C0.5,54.934,3.5,54.934,3.5,52.999L3.5,52.999z"/>
	</g>
</g>
<g>
	<g>
		<path d="M11,3.5c14,0,28,0,42,0c1.935,0,1.935-3,0-3c-14,0-28,0-42,0C9.066,0.5,9.066,3.5,11,3.5L11,3.5z"/>
	</g>
</g>
<path fill="none" stroke="#000000" d="M6.5,6.5"/>
<path fill="none" stroke="#000000" d="M57.5,57.5"/>
<path fill="none" stroke="#000000" d="M6.5,56.782"/>
<path fill="none" stroke="#000000" d="M50.076,50.076"/>
<path fill="none" stroke="#000000" d="M13.925,49.357"/>
<path fill="none" stroke="#000000" d="M13.925,13.924"/>
<path fill="none" stroke="#000000" d="M50.076,13.924"/>
<path fill="none" stroke="#000000" d="M31.479,17.005"/>
<path fill="none" stroke="#000000" d="M31.479,2.005"/>
<g>
	<g>
		<path d="M27.979,14.002c0,12,0,24,0,36c0,4.514,7,4.514,7,0c0-12,0-24,0-36C34.979,9.488,27.979,9.488,27.979,14.002
			L27.979,14.002z"/>
	</g>
</g>
<g>
	<g>
		<path d="M33.953,47.528c-5.303-5.304-10.606-10.607-15.91-15.911c-3.195-3.194-8.145,1.755-4.95,4.95
			c5.304,5.304,10.607,10.607,15.91,15.91C32.198,55.673,37.148,50.723,33.953,47.528L33.953,47.528z"/>
	</g>
</g>
<g>
	<g>
		<path d="M33.953,52.478c5.304-5.303,10.607-10.605,15.91-15.909c3.195-3.194-1.755-8.144-4.949-4.95
			c-5.304,5.303-10.607,10.606-15.911,15.91C25.809,50.723,30.759,55.672,33.953,52.478L33.953,52.478z"/>
	</g>
</g>
</svg>
