<?xml version="1.0" encoding="utf-8"?>
<!-- Generator: Adobe Illustrator 14.0.0, SVG Export Plug-In . SVG Version: 6.00 Build 43363)  -->
<!DOCTYPE svg PUBLIC "-//W3C//DTD SVG 1.1//EN" "http://www.w3.org/Graphics/SVG/1.1/DTD/svg11.dtd">
<svg version="1.1" id="Layer_1" xmlns="http://www.w3.org/2000/svg" xmlns:xlink="http://www.w3.org/1999/xlink" x="0px" y="0px"
	 width="64px" height="64px" viewBox="0 0 64 64" enable-background="new 0 0 64 64" xml:space="preserve">
<g id="XMLID_1_">
	<g>
		<polygon fill="#808080" points="62,19.625 62,54.5 2,54.5 2,14.5 7,9.5 27,9.5 32,14.5 57,14.5 		"/>
	</g>
	<g>
		<polygon fill="none" stroke="#000000" stroke-width="3" points="57,14.5 32,14.5 27,9.5 7,9.5 2,14.5 2,54.5 62,54.5 62,19.625 		
			"/>
	</g>
</g>
<polygon fill="#999999" stroke="#999999" points="58.727,21.507 58.727,52 5.273,52 5.273,16.526 8.698,13.125 26.169,13.125 
	31.028,17.984 55.325,17.984 "/>
<polygon fill="#AAAAAA" stroke="#999999" points="56.367,22.331 56.367,49.5 7.633,49.5 7.633,17.335 9.582,15.386 25.177,15.386 
	30.051,20.259 54.418,20.259 "/>
</svg>
