<?xml version="1.0" encoding="utf-8"?>
<!-- Generator: Adobe Illustrator 14.0.0, SVG Export Plug-In . SVG Version: 6.00 Build 43363)  -->
<!DOCTYPE svg PUBLIC "-//W3C//DTD SVG 1.1//EN" "http://www.w3.org/Graphics/SVG/1.1/DTD/svg11.dtd">
<svg version="1.1" id="Layer_1" xmlns="http://www.w3.org/2000/svg" xmlns:xlink="http://www.w3.org/1999/xlink" x="0px" y="0px"
	 width="192px" height="64px" viewBox="0 0 192 64" enable-background="new 0 0 192 64" xml:space="preserve">
<g>
	<rect x="10.497" y="6.109" fill="#CCCCCC" width="171.042" height="50.541"/>
	<g>
		<path d="M181.539,55.008c-57.014,0-114.027,0-171.042,0c0.698,0.547,1.396,1.093,2.095,1.642c0-16.847,0-33.692,0-50.541
			c-0.699,0.547-1.398,1.093-2.096,1.64c57.014,0,114.029,0,171.042,0c-0.699-0.547-1.396-1.093-2.096-1.64
			c0,16.846,0,33.694,0,50.541c0,2.114,4.188,2.114,4.188,0c0-16.847,0-33.692,0-50.541c0-0.895-0.952-1.641-2.094-1.641
			c-57.015,0-114.028,0-171.042,0c-1.142,0-2.094,0.746-2.094,1.641c0,16.846,0,33.694,0,50.541c0,0.895,0.952,1.641,2.094,1.641
			c57.014,0,114.029,0,171.042,0C184.242,58.288,184.242,55.008,181.539,55.008z"/>
	</g>
</g>
<g>
	<rect x="18.721" y="13.316" fill="#E6E6E6" width="154.594" height="37.335"/>
</g>
<rect x="69.775" y="18.118" fill="none" width="60.422" height="26.521"/>
<rect x="29.265" y="17.379" fill="none" width="162.735" height="42.153"/>
<text transform="matrix(1.0504 0 0 1 25.6411 41.9482)" font-family="'Verdana'" font-size="33">Log Out</text>
</svg>
