<?xml version="1.0" encoding="utf-8"?>
<!-- Generator: Adobe Illustrator 14.0.0, SVG Export Plug-In . SVG Version: 6.00 Build 43363)  -->
<!DOCTYPE svg PUBLIC "-//W3C//DTD SVG 1.1//EN" "http://www.w3.org/Graphics/SVG/1.1/DTD/svg11.dtd">
<svg version="1.1" id="Layer_1" xmlns="http://www.w3.org/2000/svg" xmlns:xlink="http://www.w3.org/1999/xlink" x="0px" y="0px"
	 width="1920px" height="40px" viewBox="0 0 1920 40" enable-background="new 0 0 1920 40" xml:space="preserve">
<g>
	<rect x="-33.134" y="-2.688" fill="#999999" stroke="#595959" stroke-width="2" width="1988.781" height="41.698"/>
	<g>
		<path fill="#999999" stroke="#595959" stroke-width="2" d="M1955.647,38.359c-32.174,0-64.348,0-96.519,0
			c-83.973,0-167.941,0-251.914,0c-116.952,0-233.901,0-350.855,0c-131.115,0-262.227,0-393.339,0c-126.456,0-252.913,0-379.366,0
			c-102.979,0-205.958,0-308.937,0c-60.684,0-121.367,0-182.05,0c-8.6,0-17.2,0-25.8,0c1.865,0,1.517,1.141,1.517-0.128
			c0-0.718,0-1.438,0-2.156c0-2.71,0-5.418,0-8.128c0-6.774,0-13.548,0-20.323c0-2.459,0-4.919,0-7.379c0-0.719,0-1.438,0-2.157
			c0-1.268,0.345-0.126-1.509-0.126c0.633,0,1.265,0,1.898,0c40.264,0,80.527,0,120.793,0c89.522,0,179.045,0,268.568,0
			c119.962,0,239.926,0,359.886,0c131.585,0,263.167,0,394.749,0c124.387,0,248.772,0,373.153,0c98.369,0,196.74,0,295.104,0
			c53.534,0,107.064,0,160.599,0c4.671,0,9.345,0,14.02,0c-1.68,0-1.514-1.078-1.514-0.299c0,0.451,0,0.899,0,1.349c0,1.5,0,3,0,4.5
			c0,4.883,0,9.766,0,14.648c0,6.95,0,13.899,0,20.848c0,0.842,3.036,0.842,3.036,0c0-13.897,0-27.797,0-41.697
			c0-0.354-0.691-0.651-1.519-0.651c-32.172,0-64.347,0-96.517,0c-83.973,0-167.941,0-251.916,0c-116.952,0-233.902,0-350.854,0
			c-131.114,0-262.227,0-393.339,0c-126.457,0-252.911,0-379.365,0c-102.98,0-205.958,0-308.937,0c-60.684,0-121.367,0-182.05,0
			c-8.601,0-17.202,0-25.802,0c-0.828,0-1.518,0.296-1.518,0.651c0,13.899,0,27.799,0,41.697c0,0.356,0.69,0.652,1.518,0.652
			c32.173,0,64.345,0,96.518,0c83.971,0,167.943,0,251.915,0c116.952,0,233.904,0,350.856,0c131.113,0,262.226,0,393.339,0
			c126.455,0,252.911,0,379.364,0c102.979,0,205.959,0,308.937,0c60.684,0,121.366,0,182.049,0c8.603,0,17.202,0,25.803,0
			C1957.604,39.661,1957.604,38.359,1955.647,38.359z"/>
	</g>
</g>
<rect x="-29.533" y="2.591" fill="#B3B3B3" width="1975.405" height="32.659"/>
<rect x="-29.533" y="6.417" fill="#BFBFBF" width="1975.405" height="24.333"/>
<rect x="-29.533" y="12.385" fill="#C6C6C6" width="1975.405" height="13.115"/>
</svg>
