<?xml version="1.0" encoding="utf-8"?>
<!-- Generator: Adobe Illustrator 14.0.0, SVG Export Plug-In . SVG Version: 6.00 Build 43363)  -->
<!DOCTYPE svg PUBLIC "-//W3C//DTD SVG 1.1//EN" "http://www.w3.org/Graphics/SVG/1.1/DTD/svg11.dtd">
<svg version="1.1" id="Layer_1" xmlns="http://www.w3.org/2000/svg" xmlns:xlink="http://www.w3.org/1999/xlink" x="0px" y="0px"
	 width="640px" height="64px" viewBox="0 0 640 64" enable-background="new 0 0 640 64" xml:space="preserve">
<rect fill="#B3B3B3" stroke="#666666" stroke-width="5" width="640" height="64"/>
<g>
	<rect x="476" y="10" fill="#F2F2F2" width="152" height="43"/>
	<g>
		<path fill="#4D4D4D" d="M628.177,51.604c-48.563,0-97.124,0-145.687,0c-2.104,0-4.209,0-6.313,0
			c0.593,0.414,1.186,0.829,1.779,1.243c0-14.333,0-28.667,0-43c-0.711,0.516-1.422,1.032-2.133,1.548c48.563,0,97.124,0,145.687,0
			c2.104,0,4.209,0,6.313,0c-0.593-0.415-1.186-0.829-1.779-1.244c0,14.333,0,28.667,0,43c0,2.011,3.912,1.407,3.912-0.305
			c0-14.333,0-28.667,0-43c0-1.01-0.936-1.244-1.779-1.244c-48.563,0-97.124,0-145.687,0c-2.104,0-4.209,0-6.313,0
			c-0.747,0-2.133,0.639-2.133,1.548c0,14.333,0,28.667,0,43c0,1.01,0.936,1.243,1.779,1.243c48.563,0,97.124,0,145.687,0
			c2.104,0,4.209,0,6.313,0C630.019,54.396,630.8,51.604,628.177,51.604z"/>
	</g>
</g>
<text transform="matrix(1 0 0 1 507 42.7041)" font-family="'Verdana'" font-size="27">Upload</text>
</svg>
