<?xml version="1.0" encoding="utf-8"?>
<!-- Generator: Adobe Illustrator 14.0.0, SVG Export Plug-In . SVG Version: 6.00 Build 43363)  -->
<!DOCTYPE svg PUBLIC "-//W3C//DTD SVG 1.1//EN" "http://www.w3.org/Graphics/SVG/1.1/DTD/svg11.dtd">
<svg version="1.1" xmlns="http://www.w3.org/2000/svg" xmlns:xlink="http://www.w3.org/1999/xlink" x="0px" y="0px" width="64px"
	 height="64px" viewBox="0 0 64 64" enable-background="new 0 0 64 64" xml:space="preserve">
<g id="Layer_2">
</g>
<g id="Layer_1">
	<g id="XMLID_1_">
		<g>
			<polygon fill="#808080" points="53,2 62,11 62,52.999 53,61.999 11,61.999 2,52.999 2,11 11,2 			"/>
		</g>
		<g>
			<line fill="none" stroke="#000000" stroke-width="0.25" x1="2" y1="11" x2="11" y2="2"/>
			<line fill="none" stroke="#000000" stroke-width="0.25" x1="62" y1="11" x2="53" y2="2"/>
			<line fill="none" stroke="#000000" stroke-width="0.25" x1="11" y1="61.999" x2="2" y2="52.999"/>
			<line fill="none" stroke="#000000" stroke-width="0.25" x1="53" y1="61.999" x2="62" y2="52.999"/>
			<line fill="none" stroke="#000000" stroke-width="0.25" x1="2" y1="52.999" x2="2" y2="11"/>
			<line fill="none" stroke="#000000" stroke-width="0.25" x1="11" y1="2" x2="53" y2="2"/>
			<line fill="none" stroke="#000000" stroke-width="0.25" x1="62" y1="11" x2="62" y2="52.999"/>
			<line fill="none" stroke="#000000" stroke-width="0.25" x1="53" y1="61.999" x2="11" y2="61.999"/>
		</g>
	</g>
	<g id="XMLID_2_">
		<g>
			<polygon fill="#999999" points="58.251,13.625 58.251,50.375 50.374,58.247 13.624,58.247 5.747,50.375 5.747,13.625 
				13.624,5.748 50.374,5.748 			"/>
		</g>
		<g>
		</g>
	</g>
	<path fill="none" stroke="#000000" d="M11,2"/>
	<path fill="none" stroke="#000000" d="M11,2"/>
	<path fill="none" stroke="#000000" d="M2.001,11"/>
	<path fill="none" stroke="#000000" d="M53,2"/>
	<path fill="none" stroke="#000000" d="M62,11"/>
	<g>
		<g>
			<path d="M63.061,9.939c-3-3-6-6-9-9c-1.369-1.369-3.49,0.752-2.121,2.121c3,3,6,6,9,9C62.309,13.429,64.43,11.308,63.061,9.939
				L63.061,9.939z"/>
		</g>
	</g>
	<path fill="none" stroke="#000000" d="M2.001,52.998"/>
	<path fill="none" stroke="#000000" d="M11,62"/>
	<g>
		<g>
			<path d="M12.061,60.939c-3-3.001-6-6.001-9-9.002c-1.369-1.369-3.49,0.752-2.121,2.121c3,3.001,6,6.001,9,9.002
				C11.309,64.43,13.43,62.309,12.061,60.939L12.061,60.939z"/>
		</g>
	</g>
	<path fill="none" stroke="#000000" d="M62,52.998"/>
	<path fill="none" stroke="#000000" d="M53,62"/>
	<g>
		<g>
			<path d="M54.061,63.061c3-3.001,6-6.001,9-9.002c1.369-1.369-0.752-3.49-2.121-2.121c-3,3.001-6,6.001-9,9.002
				C50.57,62.309,52.691,64.43,54.061,63.061L54.061,63.061z"/>
		</g>
	</g>
	<g>
		<g>
			<path d="M3.501,52.998c0-14,0-27.999,0-41.999c0-1.935-3-1.935-3,0c0,14,0,27.999,0,41.999
				C0.501,54.933,3.501,54.933,3.501,52.998L3.501,52.998z"/>
		</g>
	</g>
	<g>
		<g>
			<path d="M60.5,11c0,14,0,27.999,0,41.999c0,1.935,3,1.935,3,0c0-14,0-27.999,0-41.999C63.5,9.065,60.5,9.065,60.5,11L60.5,11z"/>
		</g>
	</g>
	<g>
		<g>
			<path d="M53,60.5c-14,0-28,0-42,0c-1.935,0-1.935,3,0,3c14,0,28,0,42,0C54.935,63.5,54.935,60.5,53,60.5L53,60.5z"/>
		</g>
	</g>
	<path fill="none" stroke="#000000" d="M57.5,57.5"/>
	<path fill="none" stroke="#000000" d="M6.5,6.5"/>
	<path fill="none" stroke="#000000" d="M57.5,7.219"/>
	<path fill="none" stroke="#000000" d="M6.5,57.5"/>
	<path fill="none" stroke="#000000" d="M13.926,13.925"/>
	<path fill="none" stroke="#000000" d="M50.076,14.642"/>
	<path fill="none" stroke="#000000" d="M50.076,50.076"/>
	<path fill="none" stroke="#000000" d="M13.926,50.076"/>
	<g>
		<g>
			<path d="M47.602,12.167C35.551,23.978,23.501,35.79,11.451,47.602c-3.228,3.163,1.725,8.11,4.95,4.949
				c12.05-11.812,24.1-23.623,36.15-35.434C55.778,13.953,50.826,9.006,47.602,12.167L47.602,12.167z"/>
		</g>
	</g>
	<g>
		<g>
			<path d="M11.451,16.4c12.05,12.05,24.1,24.101,36.151,36.15c3.194,3.195,8.144-1.755,4.949-4.949
				c-12.05-12.051-24.1-24.101-36.15-36.151C13.206,8.256,8.256,13.206,11.451,16.4L11.451,16.4z"/>
		</g>
	</g>
	<g>
		<g>
			<path d="M11,3.5c14,0,28,0,42,0c1.935,0,1.935-3,0-3c-14,0-28,0-42,0C9.066,0.5,9.066,3.5,11,3.5L11,3.5z"/>
		</g>
	</g>
	<g>
		<g>
			<path d="M3.062,12.06c3-3,6-6,9-9c1.369-1.369-0.752-3.49-2.121-2.121c-3,3-6,6-9,9C-0.429,11.308,1.692,13.429,3.062,12.06
				L3.062,12.06z"/>
		</g>
	</g>
</g>
</svg>
