<?xml version="1.0" encoding="utf-8"?>
<!-- Generator: Adobe Illustrator 14.0.0, SVG Export Plug-In . SVG Version: 6.00 Build 43363)  -->
<!DOCTYPE svg PUBLIC "-//W3C//DTD SVG 1.1//EN" "http://www.w3.org/Graphics/SVG/1.1/DTD/svg11.dtd">
<svg version="1.1" id="Layer_1" xmlns="http://www.w3.org/2000/svg" xmlns:xlink="http://www.w3.org/1999/xlink" x="0px" y="0px"
	 width="64px" height="64px" viewBox="0 0 64 64" enable-background="new 0 0 64 64" xml:space="preserve">
<g>
	<rect x="6.406" y="1.612" fill="#B3B3B3" width="51.188" height="60.776"/>
	<g>
		<path d="M57.594,60.889c-17.063,0-34.125,0-51.188,0c0.5,0.5,1,1,1.5,1.5c0-20.259,0-40.518,0-60.776c-0.5,0.5-1,1-1.5,1.5
			c17.063,0,34.125,0,51.188,0c-0.5-0.5-1-1-1.5-1.5c0,20.259,0,40.518,0,60.776c0,1.935,3,1.935,3,0c0-20.259,0-40.518,0-60.776
			c0-0.818-0.683-1.5-1.5-1.5c-17.063,0-34.125,0-51.188,0c-0.818,0-1.5,0.682-1.5,1.5c0,20.259,0,40.518,0,60.776
			c0,0.817,0.682,1.5,1.5,1.5c17.063,0,34.125,0,51.188,0C59.528,63.889,59.528,60.889,57.594,60.889z"/>
	</g>
</g>
<rect x="9.963" y="5.169" fill="#CCCCCC" width="44.074" height="53.662"/>
<g>
	<g>
		<path fill="#808080" d="M18.622,13.938c10.465,0,20.93,0,31.395,0c1.935,0,1.935-3,0-3c-10.465,0-20.93,0-31.395,0
			C16.688,10.938,16.688,13.938,18.622,13.938L18.622,13.938z"/>
	</g>
</g>
<g>
	<g>
		<path fill="#808080" d="M18.622,23.216c10.465,0,20.93,0,31.395,0c1.935,0,1.935-3,0-3c-10.465,0-20.93,0-31.395,0
			C16.688,20.216,16.688,23.216,18.622,23.216L18.622,23.216z"/>
	</g>
</g>
<g>
	<g>
		<path fill="#808080" d="M13.829,13.938c1.935,0,1.935-3,0-3S11.895,13.938,13.829,13.938L13.829,13.938z"/>
	</g>
</g>
<g>
	<g>
		<path fill="#808080" d="M13.829,23.216c1.935,0,1.935-3,0-3S11.895,23.216,13.829,23.216L13.829,23.216z"/>
	</g>
</g>
</svg>
