<?xml version="1.0" encoding="utf-8"?>
<!-- Generator: Adobe Illustrator 14.0.0, SVG Export Plug-In . SVG Version: 6.00 Build 43363)  -->
<!DOCTYPE svg PUBLIC "-//W3C//DTD SVG 1.1//EN" "http://www.w3.org/Graphics/SVG/1.1/DTD/svg11.dtd">
<svg version="1.1" id="Layer_1" xmlns="http://www.w3.org/2000/svg" xmlns:xlink="http://www.w3.org/1999/xlink" x="0px" y="0px"
	 width="64px" height="64px" viewBox="0 0 64 64" enable-background="new 0 0 64 64" xml:space="preserve">
<g id="XMLID_1_">
	<g>
		<polygon fill="#808080" points="11,2 53.001,2 62.001,11 62.001,53 53.001,62 11,62 2,53 2,11 		"/>
	</g>
	<g>
		<line fill="none" stroke="#000000" stroke-width="0.25" x1="2" y1="11" x2="11" y2="2"/>
		<line fill="none" stroke="#000000" stroke-width="0.25" x1="62.001" y1="11" x2="53.001" y2="2"/>
		<line fill="none" stroke="#000000" stroke-width="0.25" x1="11" y1="62" x2="2" y2="53"/>
		<line fill="none" stroke="#000000" stroke-width="0.25" x1="53.001" y1="62" x2="62.001" y2="53"/>
		<line fill="none" stroke="#000000" stroke-width="0.25" x1="2" y1="53" x2="2" y2="11"/>
		<line fill="none" stroke="#000000" stroke-width="0.25" x1="11" y1="2" x2="53.001" y2="2"/>
		<line fill="none" stroke="#000000" stroke-width="0.25" x1="62.001" y1="11" x2="62.001" y2="53"/>
		<line fill="none" stroke="#000000" stroke-width="0.25" x1="53.001" y1="62" x2="11" y2="62"/>
	</g>
</g>
<g id="XMLID_2_">
	<g>
		<polygon fill="#999999" points="58.25,50.374 50.375,58.249 13.627,58.249 5.752,50.374 5.752,13.624 13.627,5.749 50.375,5.749 
			58.25,13.624 		"/>
	</g>
	<g>
	</g>
</g>
<path fill="none" stroke="#000000" d="M11.001,2"/>
<path fill="none" stroke="#000000" d="M11.001,2"/>
<path fill="none" stroke="#000000" d="M2.001,11"/>
<g>
	<g>
		<path d="M3.062,12.061c3-3,6-6,9-9c1.369-1.369-0.752-3.49-2.121-2.121c-3,3-6,6-9,9C-0.429,11.309,1.692,13.43,3.062,12.061
			L3.062,12.061z"/>
	</g>
</g>
<path fill="none" stroke="#000000" d="M53.001,2"/>
<path fill="none" stroke="#000000" d="M62.001,11"/>
<g>
	<g>
		<path d="M63.062,9.939c-3-3-6-6-9-9c-1.369-1.369-3.49,0.752-2.121,2.121c3,3,6,6,9,9C62.31,13.43,64.431,11.309,63.062,9.939
			L63.062,9.939z"/>
	</g>
</g>
<path fill="none" stroke="#000000" d="M2.001,53"/>
<path fill="none" stroke="#000000" d="M11.001,62"/>
<g>
	<g>
		<path d="M12.062,60.939c-3-3-6-6-9-9c-1.369-1.369-3.49,0.752-2.121,2.121c3,3,6,6,9,9C11.31,64.43,13.431,62.309,12.062,60.939
			L12.062,60.939z"/>
	</g>
</g>
<path fill="none" stroke="#000000" d="M62.001,53"/>
<path fill="none" stroke="#000000" d="M53.001,62"/>
<g>
	<g>
		<path d="M54.062,63.061c3-3,6-6,9-9c1.369-1.369-0.752-3.49-2.121-2.121c-3,3-6,6-9,9C50.571,62.309,52.692,64.43,54.062,63.061
			L54.062,63.061z"/>
	</g>
</g>
<g>
	<g>
		<path d="M3.501,53c0-14,0-28,0-42c0-1.935-3-1.935-3,0c0,14,0,28,0,42C0.501,54.935,3.501,54.935,3.501,53L3.501,53z"/>
	</g>
</g>
<g>
	<g>
		<path d="M11.001,3.5c14,0,28,0,42,0c1.935,0,1.935-3,0-3c-14,0-28,0-42,0C9.066,0.5,9.066,3.5,11.001,3.5L11.001,3.5z"/>
	</g>
</g>
<g>
	<g>
		<path d="M60.501,11c0,14,0,28,0,42c0,1.935,3,1.935,3,0c0-14,0-28,0-42C63.501,9.065,60.501,9.065,60.501,11L60.501,11z"/>
	</g>
</g>
<g>
	<g>
		<path d="M53.001,60.5c-14,0-28,0-42,0c-1.935,0-1.935,3,0,3c14,0,28,0,42,0C54.936,63.5,54.936,60.5,53.001,60.5L53.001,60.5z"/>
	</g>
</g>
<path fill="none" stroke="#000000" d="M57.501,57.5"/>
<path fill="none" stroke="#000000" d="M6.501,6.5"/>
<path fill="none" stroke="#000000" d="M57.501,7.217"/>
<path fill="none" stroke="#000000" d="M13.925,13.924"/>
<path fill="none" stroke="#000000" d="M50.076,14.642"/>
<path fill="none" stroke="#000000" d="M50.076,50.075"/>
<path fill="none" stroke="#000000" d="M13.925,50.075"/>
<path fill="none" stroke="#000000" d="M32.522,46.994"/>
<path fill="none" stroke="#000000" d="M32.522,61.994"/>
<g>
	<g>
		<path d="M36.022,49.997c0-12,0-24,0-36.001c0-4.514-7-4.514-7,0c0,12,0,24.001,0,36.001
			C29.022,54.511,36.022,54.511,36.022,49.997L36.022,49.997z"/>
	</g>
</g>
<g>
	<g>
		<path d="M30.047,16.471c5.303,5.303,10.607,10.606,15.911,15.91c3.194,3.195,8.145-1.755,4.949-4.95
			c-5.303-5.303-10.606-10.606-15.91-15.91C31.803,8.327,26.853,13.276,30.047,16.471L30.047,16.471z"/>
	</g>
</g>
<g>
	<g>
		<path d="M30.047,11.521c-5.303,5.304-10.606,10.607-15.91,15.91c-3.194,3.195,1.755,8.145,4.95,4.95
			c5.303-5.304,10.606-10.607,15.91-15.91C38.192,13.276,33.242,8.327,30.047,11.521L30.047,11.521z"/>
	</g>
</g>
</svg>
